<svg width="1239" height="627" viewBox="0 0 1239 627" fill="none" xmlns="http://www.w3.org/2000/svg">
<path d="M181.507 75.621C194.762 75.621 205.5 64.8758 205.5 51.621V24C205.5 10.7452 216.245 0 229.5 0H1215C1228.25 0 1239 10.7452 1239 24V603C1239 616.255 1228.25 627 1215 627H24C10.7451 627 0 616.255 0 603V99.621C0 86.3662 10.7452 75.621 24 75.621H74.9112C74.9112 75.621 120.568 75.621 149.822 75.621C160.242 75.621 171.704 75.621 181.507 75.621Z" fill="#F3F3F3"/>
<path d="M181.507 75.621C194.762 75.621 205.5 64.8758 205.5 51.621V24C205.5 10.7452 216.245 0 229.5 0H1215C1228.25 0 1239 10.7452 1239 24V603C1239 616.255 1228.25 627 1215 627H24C10.7451 627 0 616.255 0 603V99.621C0 86.3662 10.7452 75.621 24 75.621H74.9112C74.9112 75.621 120.568 75.621 149.822 75.621C160.242 75.621 171.704 75.621 181.507 75.621Z" fill="#F3F3F3"/>
<path d="M149.822 75.621C160.242 75.621 171.704 75.621 181.507 75.621C194.762 75.621 205.5 64.8758 205.5 51.621V24C205.5 10.7452 216.245 0 229.5 0H1215C1228.25 0 1239 10.7452 1239 24V603C1239 616.255 1228.25 627 1215 627H24C10.7451 627 0 616.255 0 603V99.621C0 86.3662 10.7452 75.621 24 75.621H74.9112C74.9112 75.621 120.568 75.621 149.822 75.621Z" stroke="#BDB8B8"/>
</svg>
